<?xml version="1.0" standalone="no"?><!DOCTYPE svg PUBLIC "-//W3C//DTD SVG 1.1//EN" "http://www.w3.org/Graphics/SVG/1.1/DTD/svg11.dtd"><svg t="1501509155658" class="icon" style="" viewBox="0 0 1024 1024" version="1.1" xmlns="http://www.w3.org/2000/svg" p-id="4259" xmlns:xlink="http://www.w3.org/1999/xlink" width="200" height="200"><defs><style type="text/css"></style></defs><path d="M512 512m-512 0a512 512 0 1 0 1024 0 512 512 0 1 0-1024 0Z" fill="#FBB935" p-id="4260"></path><path d="M691.3536 297.4208h-38.5536v60.3136a25.6 25.6 0 0 1-25.6 25.6h-230.4a25.6 25.6 0 0 1-25.6-25.6V297.4208h-38.5536a51.2 51.2 0 0 0-51.2 51.2v355.3792a51.2 51.2 0 0 0 51.2 51.2h358.7072a51.2 51.2 0 0 0 51.2-51.2V348.6208a51.2 51.2 0 0 0-51.2-51.2z m-73.1136 200.96L491.6224 626.688l-70.0416-71.1168a19.2 19.2 0 1 1 27.3408-26.9312l42.7008 43.3664 99.0208-100.5568a19.28192 19.28192 0 0 1 27.5968 26.9312z" fill="#FFFFFF" p-id="4261"></path><path d="M396.8 313.6V358.4h230.4v-44.8a44.8 44.8 0 0 0-44.8-44.8H441.4976a44.7488 44.7488 0 0 0-44.6976 44.8z" fill="#FFFFFF" p-id="4262"></path></svg>