<?xml version="1.0" standalone="no"?><!DOCTYPE svg PUBLIC "-//W3C//DTD SVG 1.1//EN" "http://www.w3.org/Graphics/SVG/1.1/DTD/svg11.dtd"><svg t="1501515667716" class="icon" style="" viewBox="0 0 1024 1024" version="1.1" xmlns="http://www.w3.org/2000/svg" p-id="945" xmlns:xlink="http://www.w3.org/1999/xlink" width="200" height="200"><defs><style type="text/css"></style></defs><path d="M758.183936 476.919808l-34.11456 0c-4.568064 0-8.3712 5.653504-8.3712 12.090368l0 122.07104c0 6.414336 3.802112 11.720704 8.3712 11.720704l34.11456 0c4.502528 0 8.327168-5.306368 8.327168-11.720704l0-122.07104C766.511104 482.572288 762.686464 476.919808 758.183936 476.919808zM320.227328 476.919808l-34.11456 0c-4.502528 0-8.327168 5.653504-8.327168 12.090368l0 122.07104c0 6.414336 3.82464 11.720704 8.327168 11.720704l34.11456 0c4.568064 0 8.3712-5.306368 8.3712-11.720704l0-122.07104C328.598528 482.572288 324.795392 476.919808 320.227328 476.919808zM512 3.072C231.774208 3.072 4.608 230.238208 4.608 510.464S231.774208 1017.856 512 1017.856s507.392-227.166208 507.392-507.392S792.225792 3.072 512 3.072zM806.28736 649.58976c-0.021504 10.893312-9.1136 19.612672-20.107264 19.612672l-92.447744 0c-11.321344 0-20.040704-8.696832-20.040704-19.612672l-0.392192-227.313664c-1.13664-79.51872-68.5824-140.575744-151.151616-140.946432-82.939904 0.370688-150.012928 61.427712-151.150592 140.946432l-0.392192 197.133312c0 0 26.116096 86.324224 87.901184 76.126208 4.502528-15.089664 21.199872-20.721664 31.799296-20.721664l64.77824 0c22.335488 0 40.147968 17.329152 40.147968 38.465536l0 12.089344c0 21.440512-17.789952 38.792192-40.147968 38.792192l-59.48928 0c-17.047552 0-31.427584-10.176512-37.482496-24.526848-0.764928-0.739328-9.091072 0-16.674816-1.457152-61.02016-21.13536-87.508992-69.342208-87.508992-69.342208l-3.431424 0.392192-92.447744 0c-10.949632 0-20.040704-8.697856-20.040704-19.612672L238.00832 451.718144c0.021504-10.590208 9.1136-19.243008 20.063232-19.243008l66.30912 0-0.372736-10.19904c2.666496-185.042944 194.752512-185.803776 194.752512-185.803776l6.797312 0c0 0 192.084992 0.760832 194.357248 185.803776l0 10.19904 66.287616 0c10.993664 0 20.084736 8.6528 20.084736 19.221504L806.28736 649.58976z" p-id="946" fill="#ff6633"></path></svg>