<?xml version="1.0" standalone="no"?><!DOCTYPE svg PUBLIC "-//W3C//DTD SVG 1.1//EN" "http://www.w3.org/Graphics/SVG/1.1/DTD/svg11.dtd"><svg t="1501515934924" class="icon" style="" viewBox="0 0 1066 1024" version="1.1" xmlns="http://www.w3.org/2000/svg" p-id="2172" xmlns:xlink="http://www.w3.org/1999/xlink" width="208.203125" height="200"><defs><style type="text/css"></style></defs><path d="M364.288 85.333333h341.333333a256 256 0 0 1 256 256v341.333334a256 256 0 0 1-256 256h-341.333333a256 256 0 0 1-256-256V341.333333a256 256 0 0 1 256-256z m72.874667 485.205334h220.672v101.888c0 14.848-6.144 22.528-17.92 22.528-19.456 0-40.96-1.024-64.512-2.048l10.24 36.352h66.048c28.672 0 43.52-14.848 43.52-44.032V284.842667H401.834667v249.856c-1.024 70.656-17.92 129.024-51.712 175.104l28.16 25.6c33.28-43.52 52.736-98.304 58.88-164.864z m2.048-126.464h218.624v92.16h-218.624v-92.16z m218.624-34.304h-218.624v-89.6h218.624v89.6z" p-id="2173" fill="#FBB912"></path></svg>