<?xml version="1.0" standalone="no"?><!DOCTYPE svg PUBLIC "-//W3C//DTD SVG 1.1//EN" "http://www.w3.org/Graphics/SVG/1.1/DTD/svg11.dtd"><svg t="1502113551974" class="icon" style="" viewBox="0 0 1024 1024" version="1.1" xmlns="http://www.w3.org/2000/svg" p-id="8386" xmlns:xlink="http://www.w3.org/1999/xlink" width="200" height="200"><defs><style type="text/css"></style></defs><path d="M514.946 350.383c-96.617 0-175.364 78.747-175.364 175.364 0 96.813 78.747 175.364 175.364 175.364S690.31 622.364 690.31 525.747s-78.55-175.364-175.364-175.364z m0 307.132c-72.463 0-131.572-59.11-131.572-131.572 0-72.659 58.913-131.572 131.572-131.572 72.463 0 131.572 59.11 131.572 131.572 0 72.463-58.913 131.572-131.572 131.572z m459.52-208.158l-80.907-81.104c-7.658-7.658-12.175-18.066-12.764-28.867-1.768-34.366-4.32-97.206-2.16-131.18 1.178-18.066-5.303-35.936-17.674-49.093-12.372-13.158-29.85-20.816-47.916-20.816H682.062c-11.782 0-22.78-4.517-31.027-12.765L571.502 46c-33.187-33.187-90.922-33.187-123.913 0l-79.532 79.532c-8.248 8.248-19.245 12.765-31.028 12.765H230.986c-24.547 0-47.13 9.819-64.018 27.689-16.496 17.674-25.136 41.828-23.565 65.982 5.89 88.37-1.375 117.04-4.91 125.288-3.338 8.248-18.46 33.777-85.03 92.1-18.264 16.103-29.26 39.08-30.046 63.43-0.786 24.547 8.248 47.523 25.529 64.804l75.015 75.016c8.248 8.248 12.765 19.245 12.765 31.027v106.24c0 50.272 42.417 90.725 93.671 87.583 21.994-1.57 41.828-2.16 59.306-2.16 42.613 0 59.502 4.517 65.982 7.07 8.248 3.338 33.777 18.655 92.1 85.227 16.692 19.048 40.847 30.045 66.18 30.045 23.368 0 45.362-9.033 61.858-25.725l75.015-75.015c8.248-8.248 19.245-12.765 31.028-12.765h107.81c24.35 0 46.738-9.622 63.43-27.296s25.332-40.65 24.154-65c-1.571-31.617 1.178-81.89 2.946-108.793 0.785-10.604 5.302-20.62 12.764-28.278l81.496-81.496c16.496-16.496 25.725-38.686 25.725-62.055s-9.033-45.363-25.725-61.858z m-30.83 92.885l-81.497 81.496a87.7 87.7 0 0 0-25.529 56.36c-1.767 28.082-4.713 80.122-2.946 113.898 0.59 12.176-3.73 23.762-11.978 32.599-8.248 8.837-19.638 13.55-31.813 13.55h-107.81c-23.37 0-45.364 9.033-62.056 25.725l-75.015 75.016c-17.281 17.28-47.916 16.103-64.215-2.357-71.285-81.496-99.17-93.082-108.204-96.813-16.888-7.07-43.988-10.408-82.674-10.408-18.46 0-39.275 0.785-62.251 2.356l-2.946 0.197c-24.154 0-43.988-19.638-43.988-43.792v-106.24c0-23.368-9.033-45.559-25.725-62.054l-75.016-75.016c-8.64-8.64-13.157-20.227-12.764-32.402 0.392-12.372 5.695-23.565 15.12-31.813 81.497-71.284 92.887-99.17 96.814-108.203 3.731-9.23 15.317-36.919 8.051-144.926-0.785-12.371 3.339-24.154 11.783-33.187 8.444-8.837 19.638-13.943 32.01-13.943h106.042c23.37 0 45.363-9.033 62.055-25.725l79.533-79.533c16.495-16.495 45.362-16.495 62.054 0l79.533 79.533c16.495 16.495 38.49 25.725 62.055 25.725H813.24c6.088 0 11.783 2.553 16.103 6.873 4.124 4.517 6.284 10.212 5.891 16.3-2.356 36.133 0.393 100.74 2.16 136.088 0.983 21.798 10.212 42.22 25.53 57.735l80.906 81.103c8.248 8.248 12.765 19.245 12.765 31.027-0.196 11.587-4.713 22.584-12.96 30.831z" fill="#ff6633" p-id="8387"></path></svg>