<?xml version="1.0" standalone="no"?><!DOCTYPE svg PUBLIC "-//W3C//DTD SVG 1.1//EN" "http://www.w3.org/Graphics/SVG/1.1/DTD/svg11.dtd"><svg t="1501516069200" class="icon" style="" viewBox="0 0 1024 1024" version="1.1" xmlns="http://www.w3.org/2000/svg" p-id="2582" xmlns:xlink="http://www.w3.org/1999/xlink" width="200" height="200"><defs><style type="text/css"></style></defs><path d="M663.5 63.1v0.8c-3.9 0-20.1-1.4-60.6-0.8H239.2c-66.9 0-121.2 50.4-121.2 112.5v675.3c0 62.2 54.3 112.6 121.2 112.6h545.5c66.9 0 121.2-50.4 121.2-112.6V288.2L663.5 63.1z m30.3 675.3H330.2c-16.7 0-30.3-12.6-30.3-28.1 0-15.6 13.6-28.1 30.3-28.1h363.7c16.8 0 30.3 12.6 30.3 28.1 0 15.5-13.6 28.1-30.4 28.1z m0-168.8H330.2c-16.7 0-30.3-12.6-30.3-28.1 0-15.5 13.6-28.1 30.3-28.1h363.7c16.8 0 30.3 12.6 30.3 28.1 0 15.5-13.6 28.1-30.4 28.1z m30.4-281.4c-33.5 0-60.6-25.2-60.6-56.3V119.3l181.8 168.8-121.2 0.1z" fill="#FF6200" p-id="2583"></path></svg>