<?xml version="1.0" standalone="no"?><!DOCTYPE svg PUBLIC "-//W3C//DTD SVG 1.1//EN" "http://www.w3.org/Graphics/SVG/1.1/DTD/svg11.dtd"><svg t="1502335587290" class="icon" style="" viewBox="0 0 1024 1024" version="1.1" xmlns="http://www.w3.org/2000/svg" p-id="2662" xmlns:xlink="http://www.w3.org/1999/xlink" width="200" height="200"><defs><style type="text/css"></style></defs><path d="M1014.676 514.112c-4.345 307.638-254.252 525.771-536.316 507.069-264.74-17.555-471.607-243.291-465.426-506.685 6.685-284.753 235.718-499.261 507.73-496.127 275.239 3.171 493.515 231.114 494.010 495.74zM513.512 59.453c-254.442-0.002-461.305 205.12-461.301 457.406 0.004 254.525 207.009 463.358 459.49 463.514 255.226 0.167 461.397-205.328 461.462-459.936 0.061-256.233-204.098-460.98-459.649-460.988z" p-id="2663" fill="#8a8a8a"></path><path d="M375.282 436.802c35.364 0 67.654 0 99.943 0 61.579 0 123.134-0.27 184.691 0.079 61.004 0.347 100.171 39.728 100.556 101.034 0.349 54.517 0.461 109.044-0.031 163.559-0.583 64.593-32.151 103.389-95.769 105.28-103.591 3.087-207.443 2.271-311.054-0.855-54.482-1.644-88.564-43.247-88.924-98.444-0.371-56.275-0.421-112.56 0.023-168.833 0.381-48.182 22.362-80.351 67.453-96.018 14.016-4.87 16.963-12.048 16.468-24.94-0.637-16.672-0.699-33.465 0.545-50.086 6.322-84.622 87.923-147.958 176.908-137.751 89.005 10.211 151.008 88.302 137.137 173.744-0.99 6.109-8.411 11.172-12.837 16.723-4.853-6.098-11.613-11.537-14.022-18.482-2.428-6.982 0.074-15.518-0.605-23.281-6.995-80.323-58.607-125.44-138.791-121.843-54.019 2.422-125.611 48.953-121.793 133.246 0.661 14.688 0.096 29.437 0.096 46.889zM513.040 465.823c-49.273 0-98.529-0.375-147.77 0.109-46.56 0.455-71.699 25.446-72.119 71.883-0.502 56.276-0.502 112.57-0.002 168.852 0.412 46.1 24.836 73.505 70.833 74.166 99.341 1.43 198.759 1.423 298.1-0.085 47.223-0.714 71.678-28.207 72.068-75.994 0.449-54.514 0.182-109.045-0.558-163.559-0.659-48.514-27.399-74.979-75.437-75.311-48.367-0.331-96.745-0.070-145.113-0.065z" p-id="2664" fill="#8a8a8a"></path><path d="M513.040 465.821c48.366-0.002 96.739-0.268 145.105 0.069 48.038 0.33 74.781 26.794 75.437 75.311 0.739 54.512 1.003 109.044 0.558 163.559-0.393 47.785-24.836 75.271-72.068 75.994-99.339 1.507-198.757 1.511-298.1 0.085-45.985-0.661-70.417-28.071-70.833-74.166-0.498-56.282-0.498-112.571 0.002-168.852 0.42-46.439 25.561-71.423 72.119-71.883 49.247-0.48 98.503-0.109 147.776-0.11zM526.873 686.183c7.161-2.948 11.259-4.525 15.261-6.302 39.772-17.644 59.946-53.377 52.46-92.86-7.212-38.054-41.479-66.348-80.689-66.618-37.878-0.267-72.447 27.085-80.45 63.638-8.676 39.599 9.95 77.070 49.606 94.151 13.938 5.988 19.107 13.094 17.478 27.333-0.796 6.918-1.401 14.588 0.821 20.899 1.95 5.541 7.961 9.649 12.176 14.395 4.45-4.778 11.957-9.104 12.731-14.42 1.879-12.866 0.608-26.179 0.608-40.22z" p-id="2665" fill="#8a8a8a"></path><path d="M526.873 686.183c0 14.038 1.266 27.359-0.608 40.22-0.772 5.309-8.288 9.641-12.731 14.42-4.22-4.746-10.227-8.853-12.176-14.395-2.221-6.311-1.612-13.981-0.821-20.899 1.628-14.237-3.539-21.338-17.478-27.333-39.66-17.083-58.285-54.55-49.606-94.151 8.012-36.556 42.578-63.903 80.45-63.638 39.209 0.273 73.474 28.564 80.689 66.618 7.487 39.488-12.687 75.222-52.46 92.86-4.003 1.776-8.101 3.353-15.261 6.302zM514.402 657.199c29.202-0.304 55.392-27.436 54.395-56.366-0.986-28.63-25.989-53.377-54.374-53.819-29.51-0.461-55.75 25.437-55.763 55.028-0.006 29.276 26.449 55.456 55.744 55.159z" p-id="2666" fill="#8a8a8a"></path></svg>