<?xml version="1.0" standalone="no"?><!DOCTYPE svg PUBLIC "-//W3C//DTD SVG 1.1//EN" "http://www.w3.org/Graphics/SVG/1.1/DTD/svg11.dtd"><svg t="1502335559825" class="icon" style="" viewBox="0 0 1024 1024" version="1.1" xmlns="http://www.w3.org/2000/svg" p-id="1794" xmlns:xlink="http://www.w3.org/1999/xlink" width="200" height="200"><defs><style type="text/css"></style></defs><path d="M511.87712 957.474816c-246.893568 0-447.02208-200.15616-447.02208-447.021056 0-246.921216 200.128512-447.02208 447.02208-447.02208 246.863872 0 446.994432 200.100864 446.994432 447.02208C958.871552 757.31968 758.740992 957.474816 511.87712 957.474816L511.87712 957.474816zM511.87712 99.1744c-226.758656 0-411.252736 184.49408-411.252736 411.280384 0 226.78528 184.49408 411.280384 411.252736 411.280384 226.756608 0 411.224064-184.495104 411.224064-411.280384C923.101184 283.66848 738.634752 99.1744 511.87712 99.1744L511.87712 99.1744zM731.486208 790.059008c27.254784 6.93248 55.712768 15.387648 82.640896 24.609792-9.493504 9.44128-19.36896 18.44736-29.656064 27.01312-18.58048-5.948416-38.9888-11.896832-61.963264-17.734656-49.547264-12.496896-91.073536-38.962176-97.895424-43.437056-12.223488-7.58272-17.4336-19.424256-18.907136-32.795648l-1.555456-0.218112c-17.544192-2.618368-30.449664-17.349632-30.449664-34.594816-0.162816-3.930112-2.402304-36.614144-2.402304-36.670464-1.088512-15.824896 8.868864-30.501888 24.285184-35.524608 3.764224-3.982336 8.183808-27.227136 7.31136-45.290496-0.57344-12.713984 5.894144-24.772608 16.864256-31.430656 4.690944-2.890752 9.903104-4.583424 15.19616-5.074944 2.400256-5.019648 4.855808-11.513856 6.13888-16.205824 0.218112-0.818176 0.49152-1.690624 0.789504-2.5088 4.555776-13.09696 6.276096-21.720064 6.902784-27.066368-4.855808-1.965056-9.194496-4.912128-12.795904-8.895488-7.77728-8.2944-10.914816-19.864576-8.457216-30.94016 9.194496-41.089024 2.809856-105.043968-0.408576-126.216192-7.750656-66.62656-83.135488-73.721856-115.19488-73.721856-28.347392 0-50.801664 5.402624-62.808064 10.258432 0.4096 7.257088-1.471488 14.570496-5.72928 20.954112-6.683648 10.150912-18.115584 15.935488-29.984768 15.935488-3.192832 0-6.46656-0.436224-9.660416-1.309696-4.063232-1.147904-6.792192-1.364992-8.403968-1.364992-2.619392 0-2.972672 0.436224-4.00896 1.636352-12.906496 15.11424-13.642752 69.028864-6.330368 111.263744l15.715328 41.853952c5.757952 15.3344-0.108544 32.523264-14.132224 41.472-0.49152 0.32768-0.955392 0.600064-1.31072 0.873472 0.463872 3.110912 1.82784 8.13056 2.81088 11.732992 2.347008 8.89344 5.320704 20.026368 5.839872 32.466944 0 0.437248 0 0.92672 0.054272 1.309696 4.665344 0.982016 9.248768 2.837504 13.314048 5.675008 9.304064 6.329344 14.979072 16.698368 15.251456 27.829248 0.736256 32.687104 10.177536 45.94688 14.16192 48.729088 12.250112 4.420608 21.08928 15.007744 23.054336 27.776 5.23776 35.032064 5.537792 54.24128-7.038976 68.538368-6.112256 6.87616-15.443968 11.513856-24.80128 12.439552-0.192512 0.98304-0.355328 1.74592-0.464896 2.402304-2.347008 11.076608-9.929728 20.461568-20.517888 25.04704-16.91648 7.365632-27.092992 13.095936-37.869568 19.315712-12.114944 6.820864-24.638464 13.917184-45.400064 22.811648-23.465984 10.09152-48.730112 20.24448-72.467456 29.575168-10.612736-8.185856-20.736-16.754688-30.557184-25.811968 28.048384-10.8032 59.887616-23.462912 88.699904-35.85024 37.352448-15.987712 45.37344-25.592832 83.02592-42.017792 0 0 3.955712-19.098624 2.509824-30.449664l29.494272 0c0 0 0.109568 0.108544 0.355328 0.108544 1.309696 0 5.347328-2.782208-0.355328-41.032704 0 0-35.933184-9.388032-37.597184-80.760832 0 0-2.291712 0.76288-5.593088 0.76288-8.022016 0-21.854208-4.47488-23.054336-35.08736-1.06496-29.303808-24.092672-54.730752 9.029632-75.795456L350.301184 439.841792c0 0-29.195264-157.04576 45.043712-157.04576 5.430272 0 11.43296 0.872448 18.06336 2.673664-19.945472-23.519232 35.08736-47.147008 98.521088-47.147008 66.164736 0 141.549568 25.701376 150.581248 103.570432 0 0 12.577792 82.45248 0 138.87488 0 0 0.464896-0.053248 1.200128-0.053248 6.577152 0 35.6608 3.653632 11.952128 70.9376 0 0-11.788288 43.820032-30.477312 43.820032-2.101248 0-4.284416-0.603136-6.576128-1.856512 0 0 3.684352 68.645888-31.648768 80.270336 0 0 2.509824 36.506624 2.509824 39.016448l33.670144 4.965376c0 0-5.020672 29.903872 0.843776 33.232896C643.985408 751.09888 683.875328 778.001408 731.486208 790.059008L731.486208 790.059008z" p-id="1795" fill="#8a8a8a"></path></svg>