<?xml version="1.0" standalone="no"?><!DOCTYPE svg PUBLIC "-//W3C//DTD SVG 1.1//EN" "http://www.w3.org/Graphics/SVG/1.1/DTD/svg11.dtd"><svg t="1501591509953" class="icon" style="" viewBox="0 0 1024 1024" version="1.1" xmlns="http://www.w3.org/2000/svg" p-id="5716" xmlns:xlink="http://www.w3.org/1999/xlink" width="200" height="200"><defs><style type="text/css"></style></defs><path d="M706.56 368.64v404.48c5.12 20.48-10.24 35.84-30.72 40.96H358.4c-20.48 0-35.84-15.36-40.96-30.72V368.64H245.76v445.44c-5.12 40.96 20.48 76.8 61.44 81.92h399.36c40.96 0 76.8-30.72 76.8-76.8V368.64h-76.8z" p-id="5717" fill="#f66202"></path><path d="M399.36 409.6v322.56h76.8V409.6H399.36zM665.6 250.88V168.96c0-30.72 0-40.96-40.96-40.96H399.36c-40.96 0-40.96 15.36-40.96 40.96v81.92H204.8v81.92h614.4V250.88h-153.6z m-76.8 0h-153.6v-40.96h153.6v40.96zM435.2 209.92c0-15.36 0 0 0 0zM588.8 209.92s0-15.36 0 0zM552.96 409.6v322.56h76.8V409.6h-76.8z" p-id="5718" fill="#f66202"></path></svg>