<?xml version="1.0" standalone="no"?><!DOCTYPE svg PUBLIC "-//W3C//DTD SVG 1.1//EN" "http://www.w3.org/Graphics/SVG/1.1/DTD/svg11.dtd"><svg t="1501580313820" class="icon" style="" viewBox="0 0 1024 1024" version="1.1" xmlns="http://www.w3.org/2000/svg" p-id="2889" xmlns:xlink="http://www.w3.org/1999/xlink" width="200" height="200"><defs><style type="text/css"></style></defs><path d="M960 396.8V320s-128 108.8-128 204.8c0 76.8 57.6 134.4 57.6 134.4V832c0 19.2-12.8 32-32 32h-704c-6.4 0-25.6-12.8-25.6-32v-166.4c6.4-6.4 64-76.8 64-140.8C192 448 134.4 384 134.4 384V217.6c0-19.2 12.8-32 32-32H576l57.6-70.4H160C89.6 115.2 64 166.4 64 217.6V384c0 51.2 64 70.4 64 140.8s-64 102.4-64 140.8V832c0 57.6 38.4 96 96 96h697.6c57.6 0 96-44.8 96-96v-172.8c0-44.8-57.6-83.2-57.6-134.4 0-57.6 64-102.4 64-128z" fill="#FF6633" p-id="2890"></path><path d="M288 768h448c19.2 0 32-12.8 32-32s-12.8-32-32-32h-448c-19.2 0-32 12.8-32 32s12.8 32 32 32zM704 544c0 19.2 12.8 32 32 32s32-12.8 32-32-12.8-32-32-32-32 12.8-32 32zM288 384h64c19.2 0 32-12.8 32-32S371.2 320 352 320h-64c-19.2 0-32 12.8-32 32s12.8 32 32 32z m0 192h64c19.2 0 32-12.8 32-32S371.2 512 352 512h-64c-19.2 0-32 12.8-32 32s12.8 32 32 32z m153.6 0h172.8l313.6-307.2c12.8-12.8 25.6-32 32-57.6 0-25.6-6.4-44.8-19.2-64l-70.4-70.4c-19.2-12.8-38.4-19.2-64-12.8-19.2 0-44.8 12.8-57.6 32L441.6 403.2V576z m64-147.2l288-294.4c6.4-6.4 12.8-6.4 19.2-6.4h12.8L896 198.4v12.8c0 6.4-6.4 12.8-12.8 19.2L588.8 512H505.6V428.8z" fill="#FF6633" p-id="2891"></path></svg>