<?xml version="1.0" standalone="no"?><!DOCTYPE svg PUBLIC "-//W3C//DTD SVG 1.1//EN" "http://www.w3.org/Graphics/SVG/1.1/DTD/svg11.dtd"><svg t="1501580198733" class="icon" style="" viewBox="0 0 1024 1024" version="1.1" xmlns="http://www.w3.org/2000/svg" p-id="1916" xmlns:xlink="http://www.w3.org/1999/xlink" width="200" height="200"><defs><style type="text/css"></style></defs><path d="M512 223.999965c-88.378986 0-159.999975 71.619989-159.999975 159.999975s71.620989 159.999975 159.999975 159.999975 159.999975-71.619989 159.999975-159.999975-71.620989-159.999975-159.999975-159.999975z m0 261.119959c-55.818991 0-101.118984-45.228993-101.118984-101.119984 0-55.829991 45.299993-101.119984 101.118984-101.119984 55.820991 0 101.119984 45.289993 101.119984 101.119984-0.001 55.890991-45.299993 101.119984-101.119984 101.119984z" p-id="1917" fill="#FF6633"></path><path d="M512 0C299.971033 0 128.00006 171.910973 128.00006 383.99994c0 160.579975 320.18995 640.3199 383.99894 639.9999 62.83999 0.32 383.99994-481.600925 383.99994-639.9999C895.99994 171.910973 724.038967 0 512 0z m0 935.680854c-54.128992 0.319-325.688949-417.469935-325.688949-553.669914 0-179.839972 145.849977-325.689949 325.688949-325.689949 179.839972 0 325.679949 145.849977 325.679949 325.689949C837.679949 516.309919 565.300992 935.999854 512 935.680854z" p-id="1918" fill="#FF6633"></path></svg>