<?xml version="1.0" standalone="no"?><!DOCTYPE svg PUBLIC "-//W3C//DTD SVG 1.1//EN" "http://www.w3.org/Graphics/SVG/1.1/DTD/svg11.dtd"><svg t="1502121513165" class="icon" style="" viewBox="0 0 1024 1024" version="1.1" xmlns="http://www.w3.org/2000/svg" p-id="12231" xmlns:xlink="http://www.w3.org/1999/xlink" width="200" height="200"><defs><style type="text/css"></style></defs><path d="M776.442064 597.348839C776.442064 634.079089 719.351444 647.433931 655.113409 650.981035 636.881301 603.574005 573.175333 572.519118 532.365913 557.106957 557.975997 526.353574 582.433272 478.715983 582.433272 426.502627 582.433272 377.588078 562.995148 341.265745 534.760208 317.943543 548.221464 283.873619 578.194482 266.102635 613.027034 266.102635 660.29218 266.102635 699.203898 298.665039 699.203898 360.77481 699.203898 401.158577 682.372895 442.234029 657.986563 467.719964L658.092975 467.719964C648.74636 496.611116 663.73287 500.264633 666.109428 501.06273 718.05675 518.496741 776.442064 551.39612 776.442064 585.093598L776.442064 597.348839ZM621.575552 690.566703C621.575552 737.991468 532.153087 748.756927 448.246368 748.756927 364.446062 748.756927 273.888525 737.991468 273.888525 690.566703L273.888525 677.531101C273.888525 642.734021 335.714529 607.458082 388.353536 588.144106 392.166672 586.70753 410.36331 567.624116 400.183123 540.559721 374.094182 513.459855 353.751547 469.635399 353.751547 426.502627 353.751547 360.437836 397.43412 325.818111 447.749775 325.818111 498.047693 325.818111 543.716642 360.437836 543.716642 426.502627 543.716642 469.493515 521.511778 513.12288 495.582456 540.258218L495.68887 540.258218C485.756982 570.976128 501.665738 587.310538 504.201916 588.144106 559.483515 606.713191 621.575552 641.687626 621.575552 677.531101L621.575552 690.566703ZM507.429781 6.295082C230.667076 6.295082 6.295082 230.667076 6.295082 507.429781 6.295082 784.21022 230.667076 1008.564479 507.429781 1008.564479 784.192483 1008.564479 1008.564479 784.21022 1008.564479 507.429781 1008.564479 230.667076 784.192483 6.295082 507.429781 6.295082L507.429781 6.295082Z" p-id="12232" fill="#ffb400"></path></svg>