<?xml version="1.0" standalone="no"?><!DOCTYPE svg PUBLIC "-//W3C//DTD SVG 1.1//EN" "http://www.w3.org/Graphics/SVG/1.1/DTD/svg11.dtd"><svg t="1502120956962" class="icon" style="" viewBox="0 0 1024 1024" version="1.1" xmlns="http://www.w3.org/2000/svg" p-id="6482" xmlns:xlink="http://www.w3.org/1999/xlink" width="200" height="200"><defs><style type="text/css"></style></defs><path d="M459.55122 545.717073h-116.136586v61.190244h116.136586v-61.190244z m66.185365-101.151219H343.414634v61.190244h182.321951v-61.190244z m-8.741463 126.126829l-8.741463 51.2 51.2-8.741463L698.068293 474.536585l-42.458537-42.458536-138.614634 138.614634zM513.24878 0c-344.663415 0-499.512195 154.84878-499.512195 499.512195s154.84878 499.512195 499.512195 499.512195 499.512195-154.84878 499.512196-499.512195-154.84878-499.512195-499.512196-499.512195z m277.229269 761.756098c0 27.473171-21.229268 48.702439-48.702439 49.951219l-46.204878-79.921951L649.365854 811.707317l-46.204878-79.921951-46.204878 79.921951-46.204878-79.921951-46.204879 79.921951-46.204878-79.921951-46.204878 79.921951-46.204878-79.921951-44.956097 78.673171c-24.97561-3.746341-44.956098-23.726829-44.956098-49.95122V352.156098h554.458537V761.756098z m0-457.053659H234.770732v-66.185366c0-27.473171 22.478049-51.2 51.2-51.2h453.307317c27.473171 0 51.2 22.478049 51.2 51.2v66.185366z" fill="#f4ea2a" p-id="6483"></path></svg>