<?xml version="1.0" standalone="no"?><!DOCTYPE svg PUBLIC "-//W3C//DTD SVG 1.1//EN" "http://www.w3.org/Graphics/SVG/1.1/DTD/svg11.dtd"><svg t="1502120227416" class="icon" style="" viewBox="0 0 1025 1024" version="1.1" xmlns="http://www.w3.org/2000/svg" p-id="2657" xmlns:xlink="http://www.w3.org/1999/xlink" width="200.1953125" height="200"><defs><style type="text/css"></style></defs><path d="M0 511.998c0-67.02 13.326-134.012 38.974-195.933 25.648-61.92 63.597-118.712 110.988-166.103 47.39-47.391 104.181-85.34 166.101-110.987C377.984 13.325 444.976 0 512 0c67.017 0 134.01 13.325 195.93 38.975 61.92 25.648 118.718 63.596 166.103 110.987 47.39 47.39 85.345 104.184 110.986 166.103 25.65 61.921 38.975 128.913 38.975 195.933s-13.327 134.008-38.975 195.93c-25.642 61.923-63.597 118.716-110.987 166.103-47.386 47.393-104.185 85.345-166.103 110.99-61.92 25.65-128.911 38.975-195.93 38.975-67.022 0-134.013-13.325-195.935-38.975-61.92-25.645-118.712-63.597-166.102-110.99-47.391-47.387-85.34-104.18-110.988-166.102C13.326 646.006 0 579.018 0 511.998z m710.19-123.87c0-173.418-123.871-198.19-198.19-198.19-74.326 0-198.196 24.772-198.196 198.19 0 156.906 107.358 264.256 107.358 264.256l8.252 8.26v16.515c0 24.771-16.512 74.325-82.577 82.579-57.805 8.26-99.091 33.032-132.126 66.066 74.32 74.32 181.678 123.872 297.292 123.872 115.612 0 222.964-49.552 297.288-123.872-24.779-41.295-74.324-66.066-132.132-66.066-66.066-8.254-82.58-57.806-82.58-82.58v-8.26l8.259-8.254c0-8.26 107.353-115.61 107.353-272.515z" p-id="2658" fill="#ff6633"></path></svg>