<?xml version="1.0" standalone="no"?><!DOCTYPE svg PUBLIC "-//W3C//DTD SVG 1.1//EN" "http://www.w3.org/Graphics/SVG/1.1/DTD/svg11.dtd"><svg t="1502121222682" class="icon" style="" viewBox="0 0 1024 1024" version="1.1" xmlns="http://www.w3.org/2000/svg" p-id="8574" xmlns:xlink="http://www.w3.org/1999/xlink" width="200" height="200"><defs><style type="text/css"></style></defs><path d="M511.506255 234.43945c-110.583584 0-200.23237 90.969874-200.23237 203.180516 0 112.215758 200.23237 338.635557 200.23237 338.635557S711.742718 549.835723 711.742718 437.619966C711.742718 325.409324 622.090862 234.43945 511.506255 234.43945zM511.506255 511.23866c-52.855812 0-95.700619-42.847877-95.700619-95.702666 0-52.857858 42.843784-95.698572 95.700619-95.698572 52.859905 0 95.703689 42.839691 95.703689 95.698572C607.210967 468.387713 564.367183 511.23866 511.506255 511.23866z" p-id="8575" fill="#ff5800"></path><path d="M511.506255 346.33696c-39.025828 0-70.668503 31.644721-70.668503 70.668503 0 39.031968 31.642674 70.674643 70.668503 70.674643 39.036062 0 70.672596-31.643698 70.672596-70.674643C582.178851 377.98168 550.54334 346.33696 511.506255 346.33696z" p-id="8576" fill="#ff5800"></path><path d="M511.508301 63.339584c-247.365854 0-447.89703 200.530153-447.89703 447.89703 0 247.366877 200.531176 447.89703 447.89703 447.89703 247.366877 0 447.89703-200.530153 447.89703-447.89703C959.406354 263.869736 758.876202 63.339584 511.508301 63.339584zM511.506255 817.47839c0 0-229.680053-255.95344-229.680053-382.803499 0-126.854153 102.83204-229.67903 229.680053-229.67903 126.849036 0 229.684146 102.824877 229.684146 229.67903C741.191424 561.52495 511.506255 817.47839 511.506255 817.47839z" p-id="8577" fill="#ff5800"></path></svg>