<?xml version="1.0" standalone="no"?><!DOCTYPE svg PUBLIC "-//W3C//DTD SVG 1.1//EN" "http://www.w3.org/Graphics/SVG/1.1/DTD/svg11.dtd"><svg t="1502267064690" class="icon" style="" viewBox="0 0 1024 1024" version="1.1" xmlns="http://www.w3.org/2000/svg" p-id="1110" xmlns:xlink="http://www.w3.org/1999/xlink" width="200" height="200"><defs><style type="text/css"></style></defs><path d="M485.04 93.52c9.68-20.12 16.12-42.12 27.72-61.16 9.24 20.2 17.4 40.84 26.36 61.16 22.04 1.68 44.16 2.96 66.24 4.84-15.16 16.16-32.8 29.68-49.04 44.68 7.52 19.84 15.16 39.64 22.68 59.48 30.96-31 73.56-47.6 116.68-52.28-17.56 27-32.12 55.8-43.32 86 27.72-21.44 61.56-34 96.44-36.64-23.68 30.48-43.48 63.64-60.32 98.32-71.68-35.16-153.52-50.16-232.76-37.84-42 5.48-81.84 20.44-120.24 37.72-16.56-34.76-36.56-67.8-60.2-98.2 34.92 2.64 68.76 15.24 96.52 36.64-11.2-30.2-25.8-59-43.36-86 43.24 4.64 85.96 21.36 117.04 52.44 6.92-20.28 15.56-39.92 22.04-60.32-16.56-14.32-33.68-28.12-48.76-44 22.04-1.88 44.16-3.2 66.28-4.84m-28.88 127.4c37-4.72 74.4-5.16 111.4 0.04-17.32-15.92-37.04-28.96-55.44-43.56-18.6 14.56-38.12 28.04-55.96 43.52zM109.68 250.04c5.72-1.92 9.96 3.24 14.16 6.2 24.92 20.4 40.4 50.4 46.28 81.76 36-22.84 82.12-28.68 122.12-13.24-38.32 27.72-72.08 61.68-98.72 100.8-22.48-7-47-6.56-69.12 1.68-33.44 10.56-64 35.32-100.76 31.2-5.08 1.12-9.72-2.64-4.24-6.84 38.68-42.28 74.72-90.6 86.32-147.92 4.16-17.6 2.64-35.76 3.96-53.64zM907.28 251.16c3.52-3.12 9.88-1.6 7.68 4.12-1.32 32.72 4.72 65.64 18.84 95.28 17.48 38.96 45 72.12 73.12 103.8 0 0.8 0.04 2.36 0.08 3.16-35.84 7.52-67.12-15.36-99-27.32-24.4-10.4-52.08-12.76-77.48-4.68-26.56-38.96-59.96-73.2-98.52-100.4 39.72-16.24 86.2-9.84 122.04 13 6.32-34.12 24.24-67.12 53.24-86.96z" p-id="1111" fill="#ff6633"></path><path d="M413.4 344.12c9.48-36.88 46.56-59.84 82.64-64.16 46.32-6.96 100.64 16.32 115.24 63.6-19.68-4.92-40.96-9.36-60.36-0.64-7.92 3.76-16.96 8.4-20.56 16.92-5.24 19.84-5.72 42.2 4.16 60.72 6.32-7.08 8.8-17.96 17.04-23.04 16.28 5.12 35 9.12 49.68-2.28 7.12 4.52 11.84 11.96 11.16 20.64 0.44 36.96-17.2 72.24-41.68 99.12-18.56 20.16-46.88 36.2-74.88 27.64-32.56-10.16-55.36-38.84-70.08-68.32-9.96-21.8-18.16-47.08-11.68-70.96 4.12-10.84 16.4-4.6 24.04-2.12 10.04 4.08 20.56-0.28 30.44-2.4 9.08-3.76 16.84 4.08 24.96 6.92 3.24-16.12 5.36-33.92-1.36-49.36-19.4-22.24-53-21.68-78.76-12.28m80.16 98.2c-5.92-0.44-8.72 9.48-1.52 9.68 15.08 8.36 32.84 5.4 46.8-3.76-11.64-12.28-30.56-4.44-45.28-5.92m-23.2 32.84c10.92 13.08 22.56 30.48 41.8 29.96 19.12 0.48 30.76-16.88 41.64-29.96-27.76 3.48-55.72 3.44-83.44 0z" p-id="1112" fill="#ff6633"></path><path d="M359.28 423.64c-5.04-51.72 19.44-107.96 65.16-134.36-9.36 15.64-21.04 30.04-27.8 47.12-14.6 36.36-16.36 78.6-1.12 115.08 15.28 40 42.16 80.44 31.76 125.16-8.12 41.56-52.96 64.8-57.52 107.56-2.48 32.84 19.44 59.84 36.32 85.72 16.92 24.88 33.64 54.6 26 85.76-12.64 51.8-55.88 95.24-49.4 151.56-15.32-4.48-30.64-9-45.76-14.12l1.84-1.32c5.92-8.92 5.08-20.08 7.76-30.08 10.08-40.24 39.08-72.84 48.68-113.16 6.64-31.96-14.28-59.92-30.64-85.16-16.24-24.68-34.36-52.4-29.72-83.4 7.36-45.44 57.4-69.88 62.32-116.28 5.08-50.6-34.04-90.96-37.88-140.08zM599.76 289.4c45.76 26.2 70.08 82.56 65.08 134.12-3.76 49.12-42.8 89.52-37.8 140.08 4.8 46.52 55.12 71.04 62.32 116.64 4.56 30.96-13.64 58.64-29.88 83.32-16.32 25.12-37.08 52.96-30.6 84.8 9.56 40.44 38.64 73.04 48.76 113.36 2.6 10 2 21.04 7.6 30.12l1.76 1.36c-15.04 5.08-30.28 9.6-45.52 14.04 7.44-60.68-44.28-105.84-51.12-163.4-2.36-57.8 56.88-92.76 63.96-147.84 3-24.48-11.24-46.08-26-64.08-16.96-20.6-33.36-44.28-33.68-72.08-1.68-54.72 41-98.08 44.36-151.88 1.44-28.16-3.4-57.12-16.56-82.28-6.56-12.72-15.44-23.96-22.68-36.28z" p-id="1113" fill="#ff6633"></path><path d="M314.32 456.64C303.24 398.4 329.72 334.4 380.04 302.6c-9.08 12.84-19.04 25.12-26.56 39-21.56 38.4-25 86.2-10.12 127.56 11.08 31.68 26.96 64 22.08 98.52-7.52 44.4-54.12 68.84-62.88 112.6-4.96 32.08 15.96 59.64 32.16 85.12 16.76 25.28 34.24 55.76 24.32 87.08-13.76 44.28-48.68 80.68-51.88 128.56-9.24-4.4-18.48-8.8-27.76-13.16 4.84-39.68 29.12-72.36 44.48-108.2 7.08-15.96 10.04-34.52 3.52-51.2-15.08-41.28-53.44-74-53.36-120.44 2.76-48.36 52.12-74.96 64.52-119.44 6.92-39.44-18.6-74.08-24.24-111.96zM644.44 303.08c32.84 20.16 54.92 55 63.88 92.04 7.84 32.28 3.2 66.4-8.32 97.24-9.04 25.84-21.16 53.72-13.04 81.44 14 37.8 51.92 62.24 61.6 102.2 6.64 29.12-8.72 56.92-23.48 80.88-15.2 25.84-37.8 53.2-30.52 85.28 12.16 43.68 44.84 79.64 50.36 125.64-9.36 4.44-18.68 8.88-28 13.28-3.08-47.52-37.44-83.76-51.6-127.52-9.76-29.52 5.04-59.2 21.04-83.36 16.28-26.24 38.24-53.12 35.8-85.88-6.32-47.4-58.84-72.6-64.04-120.52-4.64-48.2 28.92-88.8 31.36-135.96 1.68-27.16-3.04-54.96-15.24-79.4-7.84-16.4-19.24-30.68-29.8-45.36z" p-id="1114" fill="#ff6633"></path><path d="M272.56 472.24c-8.48-55.2 16.64-113.6 61.04-146.96-24.28 33.48-45.24 72.12-44.04 114.72-1.32 44.2 27.76 83.8 21.84 128.2-10.16 43.16-54.4 68.56-64.24 111.88-4.88 29.52 11.44 56.52 24.32 81.76-26.24 24-59.12 45.08-95.76 45.4-13.72-0.4-14.72-17.56-22.24-25.96-22.2 3.48-36.2 22.32-51.52 36.72-7-9.84-13.96-19.72-20.72-29.72 1.2 1.56 3.6 4.72 4.84 6.28 18.68-14.76 35.32-34.44 60.36-37.96-2.68-9.32-5.28-18.68-7.88-28 30.84-1.6 60.16-13.84 83.8-33.56-1.6-34.6 22.12-61.6 42.12-87 10.8-14.56 24.32-29.24 25.84-48.2 0.48-30.28-14.52-57.84-17.76-87.6zM691.16 325.72c46.36 35.16 71.04 97.48 59.2 154.76-4.44 30.2-22.32 59.84-14.24 90.84 18.76 42.8 67.56 72.4 65.64 123.56 23.56 19.88 52.96 32.12 83.84 33.72-2.6 9.32-5.2 18.68-7.88 28 24.8 3.76 42.12 22.48 59.88 38.32 1.28-1.68 3.88-5.04 5.2-6.68a1089.2 1089.2 0 0 1-20.56 29.72c-15.28-15.08-30.08-32.44-51.96-37.48-6.28 9.2-8.12 26.36-21.92 26.76-36.6-0.36-69.4-21.4-95.6-45.36 13.4-26.32 30.88-55.28 23.24-86-11.76-39.76-50.68-64.44-62.44-104.16-6.32-31.28 7.6-61.4 15.4-91.04 9.32-33.68 6.96-70.36-7.04-102.4-7.6-18.96-20-35.36-30.76-52.56zM421.36 357.68c19.2-7.24 45.48-0.48 54.48 19.28-18.44-4.64-39.12-9.44-56.2 1.88-3.16-6.72-7.64-17.24 1.72-21.16zM553.16 376.2c3-21.48 32.6-24.6 49.36-18.64 9.6 3.6 5.24 14.44 2.28 21.24-15.52-11.04-34.6-6.84-51.64-2.6zM43.76 494.24c30.72-8.96 56.24-30.52 87.72-37.24 14.36-3.4 29.16-2.4 43.72-1.24-7.12 13.88-13.84 27.96-19.96 42.32-13.4 0.16-27.04 0.6-39.8 5.08-24.92 8.64-46.28 25.24-71.6 32.92-14 4.48-28.88 4.72-43.44 4.24l-0.4-3.28v-36.36l0.08-2.76c14.6 0.4 29.52 0.56 43.68-3.68zM849.04 455.68c14.4-1.08 29.12-2.04 43.36 1.24 32.72 6.84 59.04 30 91.32 38.16 13.04 3.52 26.64 3.12 40 2.72h0.28v30.88c-0.24 3.04-0.68 9.08-0.92 12.08-14.36-0.32-29.08-0.28-42.92-4.72-26.16-7.88-48.04-25.48-74.04-33.68-12-3.84-24.68-4.08-37.16-4.28-6.12-14.36-12.88-28.48-19.92-42.4zM111.8 540.6c9.88-3.04 20.24-3.52 30.48-4.52-2.96 12.72-5.88 25.52-8.4 38.36-28.48 1.28-51.32 18.96-75.56 31.6-14.12 8.08-30.84 7.16-46.08 11.44l-1.36 1.6c-2.52-14-4-28.12-6.4-42.12 12.64 0.36 25.6 0.8 37.76-3.24 24.64-7.92 44.64-25.88 69.56-33.12zM881.88 536.12c27.6-0.36 52.36 12.44 75.28 26.4 18.64 11.64 40.68 16.64 62.56 14.36-2.4 14.04-3.92 28.2-6.56 42.2l-1.4-1.6c-15.28-4.2-32-3.48-46.16-11.56-24.12-12.8-47.08-30.04-75.44-31.64-2.48-12.8-5.28-25.52-8.28-38.16zM454.8 584.52c2.4-6.6 2.72-19.16 12.72-18.24 16.04 2.36 31.56 9.08 48.08 7.92 15-0.4 29-7.08 43.96-8 8.68 3.68 7.84 14.72 11 22.24 8.6 35.08 45.68 55.44 50.64 91.96 4.44 31.84-16.12 59.16-32.68 84.16-16.52 24.92-36.56 52-32.8 83.6 5.28 33 25.96 60.6 37.32 91.52 10.2 23.84 13.24 49.96 11.44 75.68a530.56 530.56 0 0 1-184.88-0.04c-0.88-20.72-0.24-41.88 6.56-61.68 11-39.2 40.48-72.28 42.92-113.84-2.68-58.2-65.24-93.36-66.76-151.8 0.44-41.92 44.68-64.08 52.48-103.48zM73.52 637.52c16.2-11.72 35.24-18.84 55.24-20.16-0.16 11.12-0.32 22.28-0.32 33.44-36.96 0.92-59.44 38.12-96.36 39-3.68-10.92-7.36-21.8-10.88-32.76 19.2-0.64 36.96-8.36 52.32-19.52zM895.36 617.36c41.16-1.08 66.84 40 107.6 39.68-3.56 10.96-7.2 21.88-10.92 32.72-36.92-0.8-59.32-38.12-96.32-38.92-0.04-11.16-0.2-22.32-0.36-33.48z" p-id="1115" fill="#ff6633"></path><path d="M91.92 704.32c11.4-8.8 25.92-11.08 39.84-12.16 1.68 9.36 3.36 18.76 5.08 28.12-11.6 1.68-23.92 3.36-33.28 11.08-12.56 10.12-24.56 21.48-40.04 27-6.44-12.28-12.76-24.6-18.32-37.28 1.84 3 3.72 6.04 5.6 9.08 15.64-5.24 28.12-16.16 41.12-25.84zM892.4 692.2c13.8 1.04 28.24 3.28 39.6 11.96 13.52 9.96 26.36 21.6 42.96 26.32-4.76 9.32-9.52 18.6-14.32 27.88-15.48-5.64-27.52-16.96-40.12-27.08-9.36-7.68-21.64-9.32-33.2-10.96 1.72-9.4 3.36-18.76 5.08-28.12zM289.36 791.32c6.56 15.44 14.4 31.8 10.72 49.08-7.6 40.72-44.04 69.24-49.8 110.72 1.36 0.96 4 2.88 5.36 3.84-9.24-5.68-18.36-11.52-27.48-17.32 8.2-39.12 41.76-64.92 56.84-100.68 6.44-14.36 5.32-30.36 4.36-45.64zM725.76 847.8c-6.48-19.28 1.04-38.8 8.88-56.36-0.8 15.12-1.88 30.92 4.36 45.12 15.04 36 48.84 61.8 57 101.12-9.28 5.92-18.56 11.8-28.04 17.44 1.64-1.16 4.88-3.56 6.52-4.72-7.4-38.2-37.68-66-48.72-102.6zM127.12 849.12c11.76-14.32 25.04-27.68 41.8-36.08 4.04 6.6 8.04 13.24 12.08 19.84-14.92 8.28-27.36 20.2-36.72 34.44l3.12 3.64c-6.76-7.24-13.52-14.56-20.28-21.84zM843.4 833.16c3.8-6.72 7.6-13.44 11.48-20.12 17 8.16 30.32 21.64 42.16 36.08-6.8 7.36-13.64 14.68-20.48 22.04l3.28-4.04c-9.4-13.96-21.56-25.96-36.44-33.96zM173.64 895.72c8.24-10.88 17.4-21.08 27.44-30.36 4.6 5.36 9.2 10.68 13.84 16.04-8.72 9.04-16.6 18.8-23.76 29.12-5.84-4.92-11.68-9.88-17.52-14.8zM822.56 865.52c10.48 8.92 19.76 19.16 27.92 30.24-5.76 4.84-11.52 9.72-17.28 14.6a280.296 280.296 0 0 0-23.88-28.92c4.4-5.28 8.84-10.6 13.24-15.92z" p-id="1116" fill="#ff6633"></path></svg>