<?xml version="1.0" standalone="no"?><!DOCTYPE svg PUBLIC "-//W3C//DTD SVG 1.1//EN" "http://www.w3.org/Graphics/SVG/1.1/DTD/svg11.dtd"><svg t="1502266361251" class="icon" style="" viewBox="0 0 1024 1024" version="1.1" xmlns="http://www.w3.org/2000/svg" p-id="609" xmlns:xlink="http://www.w3.org/1999/xlink" width="200" height="200"><defs><style type="text/css"></style></defs><path d="M1014.354788 347.648479v-139.853767c0-66.700072-54.070986-120.769252-120.769252-120.769252H128.597407c-66.700072 0-120.769252 54.070986-120.769252 120.769252v139.830286c59.614273 29.654511 100.656998 91.022624 100.656998 162.119034s-41.044531 132.462717-100.656998 162.117228v139.830286c0 66.700072 54.070986 116.887686 120.769252 116.887686h764.964648c66.700072 0 120.769252-50.165939 120.769252-116.887686v-139.830286c-59.590793-29.654511-100.656998-91.022624-100.656998-162.117228 0.025287-71.074736 41.068012-132.441042 100.680479-162.095553zM732.519528 620.481541c0 16.675018-13.517746 30.192765-30.192765 30.192764H319.85618c-16.675018 0-30.192765-13.517746-30.192765-30.192764v-20.135735c0-16.675018 13.517746-45.791276 30.192765-45.791275h382.470583c16.675018 0 30.192765 29.116258 30.192765 45.791275v20.135735z m0-189.622338c0 16.675018-13.517746 30.192765-30.192765 30.192765H319.85618c-16.675018 0-30.192765-13.517746-30.192765-30.192765V399.030004c0-16.675018 13.517746-30.192765 30.192765-30.192765h382.470583c16.675018 0 30.192765 13.517746 30.192765 30.192765v31.829199z" p-id="610" fill="#1296d8"></path></svg>