<?xml version="1.0" standalone="no"?><!DOCTYPE svg PUBLIC "-//W3C//DTD SVG 1.1//EN" "http://www.w3.org/Graphics/SVG/1.1/DTD/svg11.dtd"><svg t="1502120763148" class="icon" style="" viewBox="0 0 1024 1024" version="1.1" xmlns="http://www.w3.org/2000/svg" p-id="5559" xmlns:xlink="http://www.w3.org/1999/xlink" width="200" height="200"><defs><style type="text/css"></style></defs><path d="M1024 512c0 282.7776-229.239467 512-512 512-282.760533 0-512-229.239467-512-512 0-282.760533 229.239467-512 512-512C794.760533 0 1024 229.2224 1024 512zM771.771733 630.801067c-3.9936-2.7648-8.840533-5.4272-13.6704-7.5264l-111.4624-61.730133c-2.901333-1.5872-4.795733-4.5056-5.0688-7.748267-0.273067-3.293867 1.1264-6.5024 3.703467-8.533333 47.530667-37.358933 48.896-115.882667 48.896-124.7232l0-74.666667c0-41.762133-57.3952-94.754133-121.9072-94.754133-29.525333 0-54.272 11.400533-69.8368 20.974933-7.492267 4.625067-11.793067 12.475733-12.168533 20.667733-10.24-3.054933-21.009067-4.8128-32.034133-4.8128-57.2928 0-112.008533 49.9712-112.008533 79.0016L346.2144 452.266667c0 32.119467 14.523733 92.279467 48.401067 119.466667 10.5472 8.465067 16.1792 21.674667 14.967467 35.140267-1.194667 13.4656-9.079467 25.463467-20.974933 31.8976l-130.5088 70.792533c-0.904533 0.494933-1.8432 0.9728-2.798933 1.399467-3.208533 1.4336-7.236267 3.908267-10.1376 6.007467l0 36.130133 424.328533 0 0-36.573867c-2.6624-1.860267-6.331733-3.959467-9.335467-5.239467-1.160533-0.494933-2.594133-1.160533-3.7376-1.792L529.2032 639.0272C517.2736 632.541867 509.44 620.458667 508.2624 606.941867 507.170133 593.408 512.904533 580.1984 523.5712 571.8016 558.4384 544.375467 568.2688 483.925333 568.2688 452.266667l0-85.316267c0-15.547733-14.2336-36.4032-36.078933-52.821333 13.2096-7.543467 27.323733-11.810133 40.0896-11.810133 39.099733 0 69.768533 33.1264 70.7072 43.554133l0 74.666667c0 23.739733-7.970133 67.669333-29.405867 84.497067-16.093867 12.731733-24.7296 32.529067-23.04 53.009067 1.7408 20.48 13.533867 38.570667 31.4368 48.349867l109.568 60.706133 0 16.725333c0 14.1312 11.4688 25.6 25.6 25.6s25.6-11.4688 25.6-25.6L782.7456 651.8272C782.728533 643.4304 778.632533 635.5968 771.771733 630.801067z" p-id="5560" fill="#ffb400"></path></svg>