<?xml version="1.0" standalone="no"?><!DOCTYPE svg PUBLIC "-//W3C//DTD SVG 1.1//EN" "http://www.w3.org/Graphics/SVG/1.1/DTD/svg11.dtd"><svg t="1502267136442" class="icon" style="" viewBox="0 0 1025 1024" version="1.1" xmlns="http://www.w3.org/2000/svg" p-id="1823" xmlns:xlink="http://www.w3.org/1999/xlink" width="200.1953125" height="200"><defs><style type="text/css"></style></defs><path d="M512.499512 512.499512m-511.500488 0a511.500488 511.500488 0 1 0 1023.000976 0 511.500488 511.500488 0 1 0-1023.000976 0Z" fill="#FFC600" p-id="1824"></path><path d="M664.650927 209.095805H360.348098c-35.864976 0-65.236293 25.575024-65.236293 56.844488v493.018536c0 31.269463 29.371317 56.844488 65.236293 56.844488h304.402731c35.864976 0 65.236293-25.575024 65.236293-56.844488V266.040195c-0.099902-31.369366-29.371317-56.94439-65.336195-56.94439z m-239.166439 28.472195H599.414634v18.981463H425.484488v-18.981463zM512.499512 777.940293c-23.976585 0-43.457561-16.983415-43.457561-37.962927s19.480976-37.962927 43.457561-37.962927c24.076488 0 43.457561 16.983415 43.457561 37.962927s-19.381073 37.962927-43.457561 37.962927z m173.930147-113.788878H338.569366V284.921756h347.860293v379.229659z m-78.823025-247.857952l-19.081366-18.481951-74.627122 77.42439-78.323512-81.12078-19.081366 18.481951 64.736781 67.134439h-54.846439v19.381073h70.730927v37.66322l-70.730927 0.099902v18.781659h70.730927v73.228488h29.970731v-73.228488h70.730927v-18.781659h-70.730927v-37.763122h70.730927v-19.381073h-51.249951l61.04039-63.438049z" fill="#FFFFFF" p-id="1825"></path></svg>