<?xml version="1.0" standalone="no"?><!DOCTYPE svg PUBLIC "-//W3C//DTD SVG 1.1//EN" "http://www.w3.org/Graphics/SVG/1.1/DTD/svg11.dtd"><svg t="1502121333186" class="icon" style="" viewBox="0 0 1024 1024" version="1.1" xmlns="http://www.w3.org/2000/svg" p-id="10574" xmlns:xlink="http://www.w3.org/1999/xlink" width="200" height="200"><defs><style type="text/css"></style></defs><path d="M512 0C229.23 0 0 229.23 0 512s229.23 512 512 512 512-229.23 512-512S794.77 0 512 0z m0.541 929.45c-230.804 0-417.908-187.104-417.908-417.909 0-230.804 187.104-417.908 417.908-417.908 230.806 0 417.909 187.104 417.909 417.908 0 230.806-187.103 417.909-417.909 417.909z" p-id="10575" fill="#1296db"></path><path d="M291.542 728.859c0-93.468 58.665-173.229 141.17-204.51-36.761-23.119-62.474-62.195-67.41-107.514L176.274 227.809c-64.498 76.19-103.39 174.749-103.39 282.393 0 241.505 195.792 437.315 437.316 437.315 107.635 0 206.192-38.896 282.387-103.396L677.325 728.859H291.542zM510.201 72.886c-107.644 0-206.202 38.893-282.393 103.391l154.539 154.539c24.78-45.123 72.744-75.715 127.854-75.715 80.5 0 145.772 65.27 145.772 145.773 0 52.026-27.274 97.678-68.294 123.474 64.202 24.339 113.971 78.026 132.895 144.696L844.12 792.589c64.502-76.194 103.396-174.75 103.396-282.386-0.001-241.524-195.81-437.317-437.315-437.317z" p-id="10576" fill="#1296db"></path></svg>