<?xml version="1.0" standalone="no"?><!DOCTYPE svg PUBLIC "-//W3C//DTD SVG 1.1//EN" "http://www.w3.org/Graphics/SVG/1.1/DTD/svg11.dtd"><svg t="1501513746072" class="icon" style="" viewBox="0 0 1024 1024" version="1.1" xmlns="http://www.w3.org/2000/svg" p-id="3207" xmlns:xlink="http://www.w3.org/1999/xlink" width="200" height="200"><defs><style type="text/css"></style></defs><path d="M894.254888 355.904646C879.426282 157.414141 713.981757 1.292929 512.108949 1.292929 310.229676 1.292929 144.785151 157.626182 129.744504 355.904646 56.452221 370.307879 0.951939 434.914263 0.951939 512.449939l0 63.96897c0 88.127354 71.601131 159.723313 159.72202 159.723313l95.747879 0L256.421838 576.418909l0-63.96897L256.421838 352.727919 194.144019 352.727919C210.244868 191.308283 346.240343 65.056323 512.108949 65.056323c165.863434 0 301.857616 126.25196 317.959758 287.459556l-62.277818 0 0 159.934061 0 63.96897L767.790888 736.142222l62.277818 0c-29.021091 130.91297-145.954909 228.994586-285.975273 228.994586-22.030222 0-43.424323-2.540606-63.975434-6.989576l0 59.737212c20.763152 3.812848 42.157253 5.717333 63.975434 5.717333 173.065051 0 316.903434-125.193051 345.924525-289.788121 3.388768-20.12703 5.505293-40.671677 5.505293-61.641697l-15.884929 0-42.58004 0-5.505293 0 0-106.343434 0-42.788202 0-106.343434 47.873293 0c44.060444 0 79.859071 47.662545 79.859071 106.343434l0 42.788202c0 58.889051-35.798626 106.343434-79.859071 106.343434l15.888808 0c0 21.182061-1.908364 41.514667-5.509172 61.641697 75.62602-12.712081 133.241535-78.378667 133.241535-157.606788l0-63.756929C1023.259494 434.914263 967.760504 370.307879 894.254888 355.904646L894.254888 355.904646 894.254888 355.904646 894.254888 355.904646zM144.785151 416.696889l47.873293 0 0 106.343434 0 42.788202 0 106.343434L144.785151 672.17196c-44.060444 0-79.859071-47.666424-79.859071-106.343434l0-42.788202C64.71404 464.151273 100.512666 416.696889 144.785151 416.696889L144.785151 416.696889 144.785151 416.696889 144.785151 416.696889zM144.785151 416.696889" p-id="3208" fill="#d81e06"></path><path d="M141.881232 384.646465c0 0-145.454545 85.979798-118.30303 173.252525s138.989899 156.444444 179.717172 153.858586 23.272727-327.111111 23.272727-327.111111L141.881232 384.646465z" p-id="3209" fill="#d81e06"></path><path d="M802.998646 384.646465 802.998646 705.939394c0 0 142.222222 0.862384 160.323232-47.407838s31.030303-174.976 12.066909-202.559354C956.426686 428.390141 890.056747 347.79798 802.998646 384.646465z" p-id="3210" fill="#d81e06"></path></svg>