<?xml version="1.0" standalone="no"?><!DOCTYPE svg PUBLIC "-//W3C//DTD SVG 1.1//EN" "http://www.w3.org/Graphics/SVG/1.1/DTD/svg11.dtd"><svg t="1501513779576" class="icon" style="" viewBox="0 0 1024 1024" version="1.1" xmlns="http://www.w3.org/2000/svg" p-id="3908" xmlns:xlink="http://www.w3.org/1999/xlink" width="200" height="200"><defs><style type="text/css"></style></defs><path d="M927.744 966.656H135.168c-16.384 0-32.768-8.192-43.008-20.48-10.24-14.336-14.336-30.72-10.24-47.104 40.96-208.896 210.944-364.544 415.744-380.928 8.192-2.048 14.336-2.048 24.576-2.048v20.48c-8.192 0-14.336 0-22.528 2.048-196.608 14.336-360.448 163.84-399.36 364.544-2.048 10.24 0 22.528 8.192 30.72 6.144 8.192 16.384 12.288 26.624 12.288h792.576c10.24 0 20.48-4.096 26.624-12.288 6.144-8.192 10.24-18.432 8.192-30.72-24.576-131.072-104.448-243.712-217.088-307.2-12.288-8.192-26.624-14.336-38.912-20.48l8.192-18.432c14.336 6.144 28.672 14.336 40.96 20.48 118.784 67.584 200.704 184.32 227.328 321.536 4.096 16.384 0 32.768-12.288 47.104-10.24 12.288-26.624 20.48-43.008 20.48z m-399.36-430.08h-4.096v-20.48h6.144l-2.048 20.48z" fill="#d81e06" p-id="3909"></path><path d="M536.576 536.576c-129.024 0-235.52-106.496-235.52-235.52S407.552 65.536 536.576 65.536s235.52 106.496 235.52 235.52-106.496 235.52-235.52 235.52z m0-450.56c-118.784 0-215.04 96.256-215.04 215.04s96.256 215.04 215.04 215.04 215.04-96.256 215.04-215.04S655.36 86.016 536.576 86.016z" fill="#d81e06" p-id="3910"></path></svg>