<?xml version="1.0" standalone="no"?><!DOCTYPE svg PUBLIC "-//W3C//DTD SVG 1.1//EN" "http://www.w3.org/Graphics/SVG/1.1/DTD/svg11.dtd"><svg t="1501665143221" class="icon" style="" viewBox="0 0 1024 1024" version="1.1" xmlns="http://www.w3.org/2000/svg" p-id="1259" xmlns:xlink="http://www.w3.org/1999/xlink" width="200" height="200"><defs><style type="text/css"></style></defs><path d="M696.64 471.232 553.344 471.232 553.344 327.744c0-22.72-18.368-40.96-40.96-40.96-22.656 0-40.96 18.24-40.96 40.96l0 143.488-143.36 0c-22.656 0-41.024 18.368-41.024 40.96 0 22.656 18.304 41.152 41.024 41.152l143.36 0 0 143.36c0 22.656 18.304 41.216 40.96 41.216 22.592 0 40.96-18.496 40.96-41.216L553.344 553.344l143.232 0c22.528 0 41.024-18.304 41.024-41.088C737.6 489.6 719.36 471.232 696.64 471.232L696.64 471.232 696.64 471.232zM512 0C229.76 0 0 229.696 0 512s229.76 512 512 512c282.368 0 512-229.568 512-512C1024 229.696 794.496 0 512 0L512 0 512 0zM512 960c-247.04 0-448-200.96-448-447.872C64.064 264.96 265.024 64 512 64c247.104 0 448 200.96 448 448.128C960 759.04 759.104 960 512 960L512 960 512 960zM512 960" p-id="1260" fill="#f66202"></path></svg>