<?xml version="1.0" standalone="no"?><!DOCTYPE svg PUBLIC "-//W3C//DTD SVG 1.1//EN" "http://www.w3.org/Graphics/SVG/1.1/DTD/svg11.dtd"><svg t="1501573923593" class="icon" style="" viewBox="0 0 1024 1024" version="1.1" xmlns="http://www.w3.org/2000/svg" p-id="1185" xmlns:xlink="http://www.w3.org/1999/xlink" width="200" height="200"><defs><style type="text/css"></style></defs><path d="M378.755896 518.293596c0-13.484223 5.09404-26.868564 15.28212-37.056644L605.890149 269.38482c8.989482-8.989482 23.57242-8.989482 32.661786 0s8.989482 23.57242 0 32.661786L426.699801 513.798855c-2.497078 2.596962-2.596962 6.492404 0 8.989482l211.852133 211.852133c8.989482 8.989482 8.989482 23.57242 0 32.661786-8.989482 8.989482-23.57242 8.989482-32.661786 0L394.137899 555.450123C383.849936 545.16216 378.755896 531.77782 378.755896 518.293596L378.755896 518.293596zM512 1.198598c282.469511 0 511.40166 228.932149 511.40166 511.40166s-228.932149 511.40166-511.40166 511.40166c-282.469511 0-511.40166-228.932149-511.40166-511.40166S229.630372 1.198598 512 1.198598zM43.248439 512.600258c0 258.89709 209.85447 468.751561 468.751561 468.751561 258.89709 0 468.751561-209.85447 468.751561-468.751561S770.89709 43.848697 512 43.848697C253.10291 43.848697 43.248439 253.703167 43.248439 512.600258z" p-id="1186" fill="#f66202"></path></svg>