<?xml version="1.0" standalone="no"?><!DOCTYPE svg PUBLIC "-//W3C//DTD SVG 1.1//EN" "http://www.w3.org/Graphics/SVG/1.1/DTD/svg11.dtd"><svg t="1501852803231" class="icon" style="" viewBox="0 0 1024 1024" version="1.1" xmlns="http://www.w3.org/2000/svg" p-id="1755" xmlns:xlink="http://www.w3.org/1999/xlink" width="200" height="200"><defs><style type="text/css"></style></defs><path d="M512 65.536c-245.76 0-445.952 200.192-445.952 445.952 0 245.76 200.192 445.952 445.952 445.952s445.952-200.192 445.952-445.952c0-245.76-200.192-445.952-445.952-445.952z m215.04 372.736l-256 259.072h-0.512v0.512c-2.048 2.048-4.608 3.072-7.168 4.608-1.024 0.512-2.048 1.536-3.584 2.048-4.096 1.536-7.68 2.56-11.776 2.56-4.096 0-8.192-1.024-12.288-2.56-1.536-0.512-2.048-1.536-3.584-2.048-2.56-1.536-4.608-2.56-6.656-4.608h-0.512l-125.952-129.536c-12.288-12.8-11.776-32.768 0.512-45.056 12.8-12.288 32.768-12.288 45.056 0.512l103.424 105.984 233.472-236.032c12.288-12.8 32.768-12.8 45.056-0.512 12.8 12.288 13.312 32.256 0.512 45.056z" fill="#ff6633" p-id="1756"></path></svg>