<?xml version="1.0" standalone="no"?><!DOCTYPE svg PUBLIC "-//W3C//DTD SVG 1.1//EN" "http://www.w3.org/Graphics/SVG/1.1/DTD/svg11.dtd"><svg t="1501843220084" class="icon" style="" viewBox="0 0 1024 1024" version="1.1" xmlns="http://www.w3.org/2000/svg" p-id="4581" xmlns:xlink="http://www.w3.org/1999/xlink" width="200" height="200"><defs><style type="text/css"></style></defs><path d="M174.503 607.674c-8.223-29.549-12.663-60.643-12.663-92.794 0-192.034 156.202-348.192 348.24-348.192 116.937 0 220.329 58.080 283.435 146.726l-387.408 387.461c-0.485 0.485-0.677 1.109-1.066 1.642-4.402 4.114-7.061 9.965-6.192 16.397 1.306 9.72 9.624 16.781 19.152 16.781 0.869 0 1.694-0.048 2.563-0.197l167.765-0.423c10.584-1.402 18.038-11.117 16.628-21.711-1.397-10.594-11.117-18.091-21.706-16.589l-118.089-0.158 377.823-378.019c-1.44-2.424-2.856-4.868-4.344-7.263-0.216-0.903-6.571-11.558-7.301-12.091-69.494-103.301-187.397-171.245-321.259-171.245-213.657 0-386.88 173.179-386.88 386.88 0 43.301 7.219 84.883 20.343 123.754l30.96-30.96z" p-id="4582" fill="#ff6633"></path><path d="M876.431 391.174l-30.864 30.869c8.208 29.558 12.657 60.672 12.657 92.837 0 191.991-156.101 348.197-348.144 348.197-116.932 0-220.329-58.085-283.488-146.726l387.413-387.509c0.384-0.389 0.528-0.917 0.912-1.306 4.594-4.157 7.349-10.104 6.48-16.733-1.397-10.589-11.217-18.134-21.806-16.589l-167.808-0.12c-10.594 1.449-17.943 11.169-16.536 21.763 1.205 9.72 6.446 14.031 18.278 16.214 0.874 0 2.611 0.566 3.485 0.423l118.612 0.129-350.304 350.309c-0.005-0.009-0.009-0.019-0.009-0.029l-28.459 28.464c67.32 113.933 191.323 190.392 333.231 190.392 213.652 0 386.88-173.228 386.88-386.885 0-36.398-5.103-71.554-14.583-104.875-1.805-6.351-3.826-12.609-5.947-18.826z" p-id="4583" fill="#ff6633"></path></svg>