<?xml version="1.0" standalone="no"?><!DOCTYPE svg PUBLIC "-//W3C//DTD SVG 1.1//EN" "http://www.w3.org/Graphics/SVG/1.1/DTD/svg11.dtd"><svg t="1502262198420" class="icon" style="" viewBox="0 0 1032 1024" version="1.1" xmlns="http://www.w3.org/2000/svg" p-id="1710" xmlns:xlink="http://www.w3.org/1999/xlink" width="201.5625" height="200"><defs><style type="text/css"></style></defs><path d="M173.808766 301.641525C155.807578 301.641525 141.090391 316.237083 141.090391 334.238271s14.595558 32.596745 32.718375 32.596745h280.842855c18.001188 0 32.718375-14.595558 32.718375-32.596745s-14.595558-32.596745-32.718375-32.596746H173.808766z m244.110702 242.529517c0-18.001188-14.595558-32.718375-32.718375-32.718375H173.808766c-18.001188 0-32.718375 14.595558-32.718375 32.718375 0 18.001188 14.595558 32.596745 32.718375 32.596745h211.513956c18.001188 0 32.596745-14.595558 32.596746-32.596745z m613.864829 410.743318c-10.581779-76.140159-34.664449-130.386982-80.883715-181.349804-29.191115-32.353486-61.058083-56.436156-95.114384-72.24801 48.651859-33.569783 80.640456-89.76268 80.640456-153.253356 0-102.533793-83.437938-185.971731-185.971731-185.97173-102.533793 0-185.971731 83.437938-185.97173 185.97173 0 64.585343 33.083264 121.629647 83.194678 154.956171-2.310963 0.973037-4.621927 1.946074-6.932889 3.040741-64.220454 29.069486-114.210239 81.248604-144.374392 151.064022-22.501485 51.935859-26.272004 95.722532-26.393633 97.546977-1.337926 16.055113 10.703409 30.164153 26.758522 31.502079 16.055113 1.337926 30.164153-10.581779 31.380449-26.636893 0-0.364889 3.40563-37.461931 22.501485-80.883715 24.690818-56.071267 63.125787-96.209051 114.088609-119.318684 91.587124-41.35408 173.322247-23.474522 242.894406 53.517044 27.853189 30.772301 55.21986 70.301936 66.288157 150.212615 2.067704 14.595558 14.473928 25.177337 28.826227 25.177337 1.337926 0 2.675852-0.12163 4.013778-0.24326 16.055113-2.432593 27.245041-17.14978 25.055707-33.083264zM750.454923 420.352061c70.423566 0 127.71113 57.287564 127.71113 127.5895 0 70.423566-57.287564 127.71113-127.71113 127.711129s-127.71113-57.287564-127.711129-127.711129c0.12163-70.301936 57.409193-127.5895 127.711129-127.5895zM323.169973 938.737617l-175.754841 0.486519c-45.246229 0-82.100012-37.94845-82.100011-84.532605V171.619432c0-46.584155 36.853783-84.532605 82.100011-84.532605h668.96306c45.246229 0 82.100012 37.94845 82.100012 84.532605l-0.243259 106.425942c0 18.122817 14.595558 32.718375 32.718375 32.718375 18.001188 0 32.596745-14.595558 32.596745-32.718375h0.24326v-106.425942c0-82.58653-66.166528-149.847725-147.415133-149.847725h-668.96306C66.166528 21.771707 0 88.911272 0 171.619432v683.193729C0 937.399691 66.166528 1004.660886 147.415132 1004.660886l175.754841-0.486518c18.001188 0 32.596745-14.595558 32.596745-32.596746 0-18.244447-14.595558-32.840005-32.596745-32.840005z" p-id="1711" fill="#ff6633"></path></svg>