<?xml version="1.0" standalone="no"?><!DOCTYPE svg PUBLIC "-//W3C//DTD SVG 1.1//EN" "http://www.w3.org/Graphics/SVG/1.1/DTD/svg11.dtd"><svg t="1501843238677" class="icon" style="" viewBox="0 0 1024 1024" version="1.1" xmlns="http://www.w3.org/2000/svg" p-id="5290" xmlns:xlink="http://www.w3.org/1999/xlink" width="200" height="200"><defs><style type="text/css"></style></defs><path d="M512 0C230.4 0 0 230.4 0 512s230.4 512 512 512 512-230.4 512-512S793.6 0 512 0L512 0zM512 979.2C256 979.2 44.8 768 44.8 512S256 44.8 512 44.8 979.2 256 979.2 512 768 979.2 512 979.2L512 979.2z" p-id="5291" fill="#ff6633"></path><path d="M576 492.8c25.6-57.6 12.8-121.6-32-160C499.2 288 435.2 281.6 377.6 300.8L448 371.2C460.8 384 460.8 409.6 448 422.4L422.4 454.4C409.6 467.2 384 467.2 371.2 454.4L300.8 384C281.6 435.2 288 499.2 332.8 544S441.6 595.2 492.8 576l147.2 147.2c12.8 12.8 38.4 12.8 51.2 0l25.6-25.6c12.8-12.8 12.8-38.4 0-51.2L576 492.8 576 492.8z" p-id="5292" fill="#ff6633"></path></svg>