<?xml version="1.0" standalone="no"?><!DOCTYPE svg PUBLIC "-//W3C//DTD SVG 1.1//EN" "http://www.w3.org/Graphics/SVG/1.1/DTD/svg11.dtd"><svg t="1501842900326" class="icon" style="" viewBox="0 0 1024 1024" version="1.1" xmlns="http://www.w3.org/2000/svg" p-id="2539" xmlns:xlink="http://www.w3.org/1999/xlink" width="200" height="200"><defs><style type="text/css"></style></defs><path d="M905.506 233.884l-195.406-195.623c-3.897-3.87-9.267-6.262-15.195-6.262-0.193 0-0.385 0.003-0.578 0.007l-524.29-0.001c0 0 0 0 0 0-31.967 0-57.895 25.852-58.017 57.79v844.401c0.123 31.95 26.051 57.802 58.017 57.802 0 0 0 0 0 0h684.138c31.924 0 57.803-25.879 57.803-57.803v-685c-0.025-6.015-2.51-11.444-6.498-15.34zM715.923 106.848l121.859 122.075h-121.859zM869.056 934.197c0 0 0 0 0 0 0 8.1-6.566 14.666-14.666 14.666 0 0 0 0 0 0h-684.353c-0.064 0.001-0.14 0.002-0.216 0.002-8.1 0-14.666-6.566-14.666-14.666 0-0.001 0-0.001 0-0.002v-844.388c0-0.001 0-0.001 0-0.002 0-8.1 6.566-14.666 14.666-14.666 0.076 0 0.152 0.001 0.227 0.002h502.739v175.348c0 11.912 9.656 21.568 21.568 21.568h174.701z" p-id="2540" fill="#ff6633"></path><path d="M726.276 394.134h-435.243c-0.001 0-0.003 0-0.005 0-11.912 0-21.568-9.656-21.568-21.568 0-11.912 9.656-21.568 21.568-21.568 0.002 0 0.003 0 0.005 0h435.243c11.91 0.003 21.563 9.658 21.563 21.568 0 11.91-9.653 21.565-21.563 21.568zM726.276 585.658h-435.243c-11.912 0-21.568-9.656-21.568-21.568s9.656-21.568 21.568-21.568h435.243c11.912 0 21.568 9.656 21.568 21.568s-9.656 21.568-21.568 21.568zM726.276 777.398h-435.243c-11.91-0.003-21.563-9.658-21.563-21.568s9.653-21.565 21.563-21.568h435.243c11.91 0.003 21.563 9.658 21.563 21.568s-9.653 21.565-21.563 21.568z" p-id="2541" fill="#ff6633"></path></svg>