<?xml version="1.0" standalone="no"?><!DOCTYPE svg PUBLIC "-//W3C//DTD SVG 1.1//EN" "http://www.w3.org/Graphics/SVG/1.1/DTD/svg11.dtd"><svg t="1501591532108" class="icon" style="" viewBox="0 0 1024 1024" version="1.1" xmlns="http://www.w3.org/2000/svg" p-id="6441" xmlns:xlink="http://www.w3.org/1999/xlink" width="200" height="200"><defs><style type="text/css"></style></defs><path d="M742.941466 1011.911461l-542.473192 0c-55.909493 0-101.745204-45.835711-101.745204-101.745204L98.723069 233.208067c0-55.909493 45.835711-101.745204 101.745204-101.745204l406.477127 0c16.621741 0 30.221348 13.599606 30.221348 30.221348s-13.599606 30.221348-30.221348 30.221348l-406.477127 0c-22.666011 0-41.302509 18.636498-41.302509 41.302509l0 676.95819c0 22.666011 18.636498 41.302509 41.302509 41.302509l542.473192 0c22.666011 0 41.302509-18.636498 41.302509-41.302509L784.243974 380.285293c0-16.621741 13.599606-30.221348 30.221348-30.221348s30.221348 13.599606 30.221348 30.221348l0 529.880964C844.68667 966.07575 799.354648 1011.911461 742.941466 1011.911461z" p-id="6442" fill="#f66202"></path><path d="M644.722086 387.33694c-7.555337 0-15.110674-2.518446-20.651254-8.562715-12.088539-11.58485-12.592228-30.725037-1.007378-42.813576l249.829808-262.422036c11.58485-12.088539 30.725037-12.592228 42.813576-1.007378 12.088539 11.58485 12.592228 30.725037 1.007378 42.813576l-249.829808 262.422036C660.840138 384.314806 652.781112 387.33694 644.722086 387.33694z" p-id="6443" fill="#f66202"></path><path d="M496.133792 452.312838l-271.99213 0c-16.621741 0-30.221348-13.599606-30.221348-30.221348s13.599606-30.221348 30.221348-30.221348l271.99213 0c16.621741 0 30.221348 13.599606 30.221348 30.221348S513.259223 452.312838 496.133792 452.312838z" p-id="6444" fill="#f66202"></path><path d="M720.275455 719.268077l-495.630103 0c-16.621741 0-30.221348-13.599606-30.221348-30.221348s13.599606-30.221348 30.221348-30.221348L720.275455 658.825381c16.621741 0 30.221348 13.599606 30.221348 30.221348S736.897196 719.268077 720.275455 719.268077z" p-id="6445" fill="#f66202"></path></svg>